<?xml version="1.0" encoding="UTF-8"?>
<svg id="Layer_1" xmlns="http://www.w3.org/2000/svg" version="1.1" viewBox="0 0 425.25 33.99">
  <!-- Generator: Adobe Illustrator 30.0.0, SVG Export Plug-In . SVG Version: 2.1.1 Build 123)  -->
  <path d="M110.84,30.97l-.06-.04h-.07c-.38-.06-.77-.07-1.15-.08-1.29-.02-2.03-.09-2.34-1.24l.14-25.01c.34-.97,1.28-1.02,2.68-.98.29,0,.56.01.82,0h.3s0-2.99,0-2.99h-10.69l-9.16,24.29L82.44.63h-11.19v2.98s.3,0,.3,0c.2,0,.43,0,.66,0,1.61-.04,2.96.03,3.17,1.21l-.15,25.03c-.29.87-1.31.96-2.51.97-.65,0-1.13.02-1.34.32l-.05.07-.1,2.79h12l.09-.09c.58-.6.43-1.64.33-2.4-.01-.08-.02-.16-.03-.23v-.07s-.05-.06-.05-.06c-.23-.33-.73-.33-1.43-.32-.93.01-2.09.03-2.45-.84-.05-.14-.3-1.17-.32-1.33V8.54l9.64,25.27,3.1.12,9.54-25.74v21.65c-.08.21-.74.85-.96.92-.24.07-.73.07-1.16.06-.89-.01-1.45,0-1.69.33l-.04.06v.07c-.18.9-.33,2.45.43,2.7l.05.02,12.47-.06.08-.06c.24-.16.36-.66.35-1.47,0-.79-.12-1.27-.35-1.43Z"/>
  <path d="M234.66,16.36c.21-.12.43-.22.65-.33.34-.17.7-.34,1.04-.57,3.17-2.1,4.4-5.28,3.29-8.5-1.35-3.94-5.67-6.65-10.04-6.33l-20.33.09-.12,2.64.24.07c.57.16,1.14.18,1.64.2,1.22.05,1.96.08,2.18,1.59-.22,3.61-.08,7.48.06,11.21.16,4.17.32,8.47-.03,12.43-.17,1.9-.84,1.93-2.17,1.99-.5.02-1.06.05-1.66.19l-.24.06v2.67l.87.28h.07c2.35-.27,5.41-.16,8.65-.04,1.91.07,3.89.14,5.85.14,5.11,0,10.05-.49,13.08-2.77,2.92-2.21,4.18-5.68,3.3-9.05-.8-3.04-3.18-5.26-6.31-5.94ZM230.78,14.18c-2.1.88-9.41,1.16-11.8.88h-.1c-.19-.03-.26-.04-.31-.1V4.3c.05-.06.12-.07.31-.09h.1c1.96-.24,10.2,0,11.79.52,1.93.63,3.14,2.24,3.22,4.32.09,2.26-1.17,4.27-3.21,5.13ZM221.74,30.44c-.42-.01-2.35-.21-2.9-.31-.03-.1-.06-.21-.1-.32-.06-.19-.15-.48-.16-.54v-10.95c.05-.06.12-.07.31-.09h.1c2.31-.28,10.47,0,12.66.82,2.8,1.05,3.68,3.49,3.57,5.42-.15,2.66-1.96,4.8-4.61,5.47-1.98.5-6.76.58-8.87.51Z"/>
  <path d="M147.1,22.16c-1.42,3.85-4.02,6.61-7.16,7.56-2.41.73-8.89,1.03-11.55.52-.13-.03-.37-.17-.44-.26v-11.56h5.3c.22.05,1.27.64,1.46.82.93.89.93,1.89.92,3.05,0,.51,0,1.05.08,1.6l.04.25,3.26.22v-15.27l-3.23.22-.06.21c-.14.51-.12,1.01-.1,1.5.01.35.03.68-.01,1-.41,3.09-3.97,3.05-6.83,3.01-.29,0-.57-.01-.83,0V4.22c1.01.02,2.03,0,3.02-.01,1.15-.02,2.33-.04,3.49,0h.44c1.55.07,3.67.14,4.96.45,2.66.65,4.78,2.9,5.68,6.03l.09.32,3.13-1.11-3.24-9.27-27.06.1-.12,2.5.06.09c.23.33.74.33,1.39.33,1.35,0,2.4.11,2.6,1.38-.24,3.69-.08,7.66.06,11.5.17,4.28.34,8.7-.03,12.73-.15,1.61-1.14,1.68-2.53,1.59-.65-.04-1.22-.07-1.49.31l-.06.09.12,2.69,27.84.06,4.08-11-3.16-1.11-.11.29Z"/>
  <path d="M420.89,21.95l-.12.27c-1.89,4.2-4.22,6.6-7.31,7.54-2.14.65-6.85.82-9.28.69-.5-.03-2.17-.16-2.43-.21-.1-.1-.3-.47-.33-.59v-11.22h5.52c.84,0,2.36,1.77,2.36,2.75v3.17h3.38v-15.22h-3.4l.02.33c.16,2.67-.4,4.26-1.76,4.99-.34.18-2.05.6-2.37.6h-3.62l-.12-.12V4.3c.05-.06.12-.07.31-.09h.1c2.5-.3,7.86-.07,10.6.2,3.43.34,5.91,3.49,6.77,6.28l.09.31,3.16-1.1-3.45-9.27h-27.08v2.98s.3,0,.3,0c.32,0,.62,0,.89,0,2.03-.01,2.78-.02,2.96,2.37.29,3.93.16,8.12.03,12.18-.12,3.6-.23,7.33-.06,10.87-.21,1.76-.84,1.78-2.08,1.81-.52.01-1.1.03-1.73.19l-.24.06.12,2.84,27.84.1,4.02-10.86-3.08-1.21Z"/>
  <path d="M352.37,16.47c-.64.21-.59,1.18-.54,2.03.02.3.03.6,0,.75l-.07.37h3.22c.2.05.96.46,1.08.58.62.67.66,4.02.51,5.7-.1,1.16-.7,2.17-1.77,2.99-2.15,1.64-5.63,2.12-7.82,1.74-3.3-.58-6.09-2.67-7.86-5.88-2.26-4.1-2.61-9.47-.88-13.68,1.78-4.33,5.18-7.11,9.11-7.42,3.84-.31,7.42,1.77,9.82,5.7.11.18.37.71.62,1.22.69,1.41.77,1.53.89,1.61.46.29,1.64-.15,1.99-.29.93-.37.99-.61,1.02-.71l.02-.08-2.82-10.37h-2.31s-.07.05-.07.05c-.34.2-.47.71-.59,1.17-.04.15-.08.3-.11.39,0,.01-.01.03-.01.04-3.96-2.52-8.86-3.05-13.47-1.46-4.85,1.68-8.7,5.51-10.29,10.24-2.05,6.11-.89,12.85,3.03,17.59,3.1,3.76,7.53,5.8,12.41,5.8.79,0,1.59-.05,2.4-.16,3.05-.41,5.81-1.7,7.92-2.83l1.08,2.44,3.15-.18.18-13.3c.23-.91.89-.94,2.02-.91.48.01.97.03,1.43-.09l.22-.06.12-2.84-13.58-.16-.05.02Z"/>
  <path d="M305.08.1c-6.61.64-11.58,4.17-13.98,9.95-2.58,6.21-1.55,13.77,2.58,18.81,3.06,3.74,7.44,5.7,12.6,5.7,1.43,0,2.92-.15,4.46-.46,9.93-1.97,13.91-11.33,12.7-19.57-1.17-7.96-7.3-15.51-18.36-14.44ZM315.49,25.57c-1.24,2.29-3.55,5.09-7.51,5.46-5.09.47-8.04-2.09-9.61-4.32-3.09-4.39-3.58-11.36-1.15-16.57,1.78-3.83,4.88-6.13,8.71-6.46,7.72-.67,11.06,5.72,11.57,11.39.33,3.71-.4,7.54-2.01,10.5Z"/>
  <path d="M263.81.1c-11.2,1-15.88,10.1-15.5,18.13.21,4.37,1.86,8.41,4.64,11.36,3.1,3.29,7.4,5.03,12.43,5.03.06,0,.11,0,.17,0,6.51-.05,11.67-3.03,14.52-8.4,3.18-5.97,2.83-13.72-.85-19.28-3.32-5-8.8-7.43-15.42-6.84ZM254.39,15.75c.46-5.21,3.42-11.49,10.27-12.07.37-.03.73-.05,1.08-.05,4.76,0,7.31,2.82,8.64,5.29,2.93,5.45,2.26,13.74-1.5,18.48-1.81,2.29-5.1,4.73-10.46,3.3-6-1.6-8.58-8.73-8.04-14.95Z"/>
  <path d="M171.28,13.89c-1.17-.32-2.27-.63-3.22-.95-2.32-.79-4.8-1.83-5.52-3.6-.35-.85-.26-1.79.28-2.87,1.29-2.56,5.27-3.09,7.69-2.64,4.09.75,7.72,4.73,9.19,8.27l.1.24,3.09-.72-2.5-10.97-2.57.02-.74,1.75c-3.47-2.73-9.74-3.16-14.52-.92-3.57,1.67-5.5,4.45-5.42,7.84.15,6.51,6.74,8.31,12.55,9.9,2.65.73,5.15,1.41,6.9,2.47,1.94,1.18,2.28,2.65,2.23,3.69-.09,1.82-1.47,3.62-3.52,4.6-5.29,2.52-11-.78-13.91-5.34-.41-.64-.72-1.31-1.03-1.95-.26-.55-.53-1.12-.86-1.68l-.11-.19-2.6.48-.22,1.23,2.19,11.34.19.05c2.22.56,2.5-.49,2.81-1.59.09-.32.18-.65.32-.99,0,0,0-.02,0-.03,2.9,2.16,6.08,3.24,9.48,3.24.85,0,1.71-.07,2.58-.2,3.65-.56,6.98-2.67,8.7-5.51,1.38-2.27,1.65-4.82.78-7.38-1.55-4.59-7.53-6.25-12.34-7.57Z"/>
  <path d="M65.23,30.87c-.85-.11-1.32-.17-1.97-1.07L52.24.75l-.19-.02c-.67-.07-4.04-.36-4.52.22l-.03.04-11.07,29.01c-.56.71-.98.73-1.55.75-.29,0-.63.02-1,.14-.53.17-.59,1.12-.59,1.53,0,.41.05,1.4.59,1.57l.05.02,10-.16.11-2.99h-.32c-.27,0-.53,0-.78,0-.85.02-1.59.04-1.87-.3-.2-.25-.22-.74-.07-1.46.25-1.16.8-2.43,1.32-3.67.48-1.13.97-2.29,1.27-3.4l10.87.16,2.59,7.93c-.07.64-.6.75-1.73.74-.6,0-1.07,0-1.3.32l-.06.09.12,2.7,12.38-.1v-2.75l-.24-.05c-.37-.08-.69-.12-.98-.16ZM53.15,18.6h-8.21l4.01-11.41,4.19,11.41Z"/>
  <path d="M15.45,3.22l.06.09c.22.31.68.32,1.33.32,1.13,0,2.1.09,2.41.97.1.29.23,1.16.27,1.61.41,4.82.32,12.94,0,17.71-.11,1.65-.42,3.72-1.78,5.03-1.42,1.36-3.82,2.09-6.13,1.88-1.83-.17-3.31-.93-4.16-2.13-.82-1.15-.67-1.99-.48-3.04.11-.62.24-1.33.14-2.15-.13-1.08-.77-1.9-1.74-2.25-1.03-.37-2.23-.12-3.05.66-1.44,1.35-1.13,5.13-.49,6.65,1.74,4.15,6.39,6.04,10.79,6.04.78,0,1.56-.06,2.31-.18,4.46-.71,9.41-3.67,9.93-9.88.27-3.22.16-6.64.06-9.95-.1-3.27-.21-6.66.05-9.85.25-1,1.07-1.09,2.4-1.11.41,0,.84-.02,1.23-.09l.24-.04.13-2.66-13.38-.1-.12,2.5Z"/>
  <path d="M383.14,3.67c.15-.02.39-.02.64-.02.65,0,1.26,0,1.5-.34l.04-.06.03-.19c.12-.74.28-1.75-.32-2.34l-.09-.09h-12.97v2.98s.3,0,.3,0c.22,0,.44,0,.66,0,1.69-.02,2.75.05,2.97,1.6-.18,3.61-.06,7.42.05,11.09.13,4.11.26,8.36-.03,12.35-.15,2.07-.66,2.1-2.03,2.19-.46.03-.99.06-1.59.18l-.24.05-.11,2.95h12.99l.09-.09c.58-.6.43-1.64.33-2.4-.01-.08-.02-.16-.03-.23v-.07s-.05-.06-.05-.06c-.25-.35-.77-.33-1.37-.31-1.07.04-1.92,0-2.31-.86-.1-.21-.14-.47-.18-.75-.03-.2-.06-.41-.12-.61.14-3.35.04-6.85-.06-10.23-.11-3.85-.22-7.84.02-11.61.11-1.76.26-2.85,1.88-3.11Z"/>
</svg>